# xmcd CD database file
#
# Track frame offsets:
#	150
#	24026
#	41007
#	63305
#	86440
#	109426
#	133822
#	150322
#	174927
#	192661
#	218923
#
# Disc length: 3238 seconds
#
# Revision: 1
# Processed by: cddbd v1.5PL3 Copyright (c) Steve Scherf et al.
# Submitted via: CDex 1.50
#
DISCID=8f0ca40b
DTITLE=Coldplay - A Rush of Blood To the Head
DYEAR=2002
DGENRE=
TTITLE0=Politik
TTITLE1=In My Place
TTITLE2=God Put A Smile Upon Your Face
TTITLE3=The Scientist
TTITLE4=Clocks
TTITLE5=Daylight
TTITLE6=Green Eyes
TTITLE7=Warning Sign
TTITLE8=A Whisper
TTITLE9=A Rush of Blood To The Head
TTITLE10=Amsterdam
EXTD=YEAR: 2002
EXTT0=
EXTT1=
EXTT2=
EXTT3=
EXTT4=
EXTT5=
EXTT6=
EXTT7=
EXTT8=
EXTT9=
EXTT10=
PLAYORDER=
